<svg width="59" height="21" viewBox="0 0 59 21" fill="none" xmlns="http://www.w3.org/2000/svg">
<path d="M26.5546 12.5161H31.1961C31.8341 12.5161 32.3513 11.9989 32.3513 11.361C32.3513 10.723 31.8341 10.2058 31.1961 10.2058H26.5546C25.9166 10.2058 25.3994 10.723 25.3994 11.361C25.3994 11.9989 25.9166 12.5161 26.5546 12.5161Z" fill="black"/>
<path d="M1.75943 11.9263L0.888537 12.972C0.633587 13.2783 0.554057 13.694 0.678147 14.0719C0.802801 14.4504 1.11303 14.7381 1.49996 14.8334L5.39379 15.7909C5.98576 18.5792 8.46292 20.6792 11.4249 20.6792C13.8377 20.6792 15.9096 19.2736 16.9232 17.2503H41.2958C42.3094 19.2736 44.3814 20.6792 46.7941 20.6792C49.2601 20.6792 51.377 19.215 52.3638 17.1189L57.3779 16.4454C57.7095 16.4009 58.0057 16.2142 58.1895 15.9344C58.3734 15.6546 58.4264 15.3083 58.3356 14.9862L57.7078 12.7645L58.352 9.84776C58.4422 9.43714 58.3029 9.01015 57.9882 8.73208C52.6122 3.98957 40.5693 4.08771 38.2183 4.15596C32.0302 0.106667 23.7155 -1.01184 14.1397 0.924536C13.6102 1.03156 13.0942 1.14628 12.5861 1.26452C12.5819 1.26564 12.5779 1.26628 12.5738 1.26748C6.10739 2.77348 1.46817 5.06838 1.25912 5.17294C0.867667 5.36866 0.620614 5.76857 0.620614 6.20627V9.03159C0.620614 9.18783 0.652201 9.34294 0.714246 9.48677L1.75943 11.9263ZM11.4249 18.3688C9.29735 18.3688 7.56629 16.6378 7.56629 14.5096C7.56629 12.3815 9.29735 10.6504 11.4249 10.6504C13.5531 10.6504 15.2842 12.3815 15.2842 14.5096C15.2842 16.6378 13.5531 18.3688 11.4249 18.3688ZM46.7941 18.3688C44.6659 18.3688 42.9349 16.6378 42.9349 14.5096C42.9349 12.3815 44.6659 10.6504 46.7941 10.6504C48.9222 10.6504 50.6533 12.3815 50.6533 14.5096C50.6533 16.6378 48.9222 18.3688 46.7941 18.3688ZM34.0337 4.50194L21.0634 5.63941C18.7416 5.84423 16.4916 4.90318 14.9925 3.13151C20.8647 1.99362 27.8795 1.73211 34.0337 4.50194ZM2.93095 6.94123C4.32753 6.30957 7.89513 4.80927 12.462 3.68703L13.0624 4.43629C14.869 6.68966 17.5781 7.97738 20.4339 7.97738C20.7097 7.97738 20.9872 7.96497 21.2653 7.94072L37.9565 6.47695C38.3415 6.46228 50.5344 5.99772 55.9424 10.0446L55.389 12.5496C55.3479 12.7357 55.3535 12.9292 55.4054 13.113L55.75 14.3331L52.9434 14.7098C52.9457 14.6417 52.9636 14.5781 52.9636 14.5096C52.9636 11.1078 50.1959 8.34007 46.7941 8.34007C43.3923 8.34007 40.6245 11.1078 40.6245 14.5096C40.6245 14.657 40.6578 14.7952 40.668 14.94H17.551C17.5612 14.7952 17.5945 14.657 17.5945 14.5096C17.5945 11.1078 14.8267 8.34007 11.4249 8.34007C8.40708 8.34007 5.89932 10.5218 5.36933 13.3885L3.8464 13.0312L3.98741 12.8615C4.26549 12.5276 4.33317 12.0662 4.1617 11.6668L2.93095 8.79469V6.94123Z" fill="black"/>
</svg>
