<svg width="24" height="24" viewBox="0 0 24 24" fill="none" xmlns="http://www.w3.org/2000/svg">
<path d="M18.3 5.69998C17.9134 5.31338 17.2866 5.31338 16.9 5.69998L12 10.6L7.09998 5.69998C6.71338 5.31338 6.08658 5.31338 5.69998 5.69998C5.31338 6.08658 5.31338 6.71338 5.69998 7.09998L10.6 12L5.69998 16.9C5.31338 17.2866 5.31338 17.9134 5.69998 18.3C6.08658 18.6866 6.71338 18.6866 7.09998 18.3L12 13.4L16.9 18.3C17.2866 18.6866 17.9134 18.6866 18.3 18.3C18.6866 17.9134 18.6866 17.2866 18.3 16.9L13.4 12L18.3 7.09998C18.6866 6.71338 18.6866 6.08658 18.3 5.69998Z" fill="black"/>
</svg>
